<?xml version="1.0" standalone="no"?>
<!DOCTYPE svg PUBLIC "-//W3C//DTD SVG 1.1//EN" "http://www.w3.org/Graphics/SVG/1.1/DTD/svg11.dtd" >
<svg xmlns="http://www.w3.org/2000/svg">
<metadata>
This is a custom SVG webfont generated by Font Squirrel.
Copyright   : Copyright c 2008 by Stefan Gandl All rights reserved
Designer    : Stefan Gandl
Foundry     : Stefan Gandl
Foundry URL : wwwneubauladencom
</metadata>
<defs>
<font id="webfontdcFGSoOo" horiz-adv-x="1163" >
<font-face units-per-em="2048" ascent="1638" descent="-410" />
<missing-glyph horiz-adv-x="614" />
<glyph unicode=" "  horiz-adv-x="614" />
<glyph unicode="&#x09;" horiz-adv-x="614" />
<glyph unicode="&#xa0;" horiz-adv-x="614" />
<glyph unicode="!" horiz-adv-x="483" d="M309 434h-135v1008h135v-1008zM309 0h-135v217h135v-217z" />
<glyph unicode="&#x22;" horiz-adv-x="651" d="M539 1001h-136v441h136v-441zM248 1001h-135v441h135v-441z" />
<glyph unicode="#" horiz-adv-x="1165" d="M1085 217h-217v-217h-135v217h-299v-217h-137v217h-217v137h217v733h-217v138h217v217h137v-217h299v217h135v-217h217v-138h-217v-733h217v-137zM733 354v733h-299v-733h299z" />
<glyph unicode="$" horiz-adv-x="1165" d="M1085 393q0 -162 -111.5 -277.5t-271.5 -115.5h-51v-219h-137v217h-49q-125 0 -224.5 74.5t-140.5 191.5l129 43q27 -78 91.5 -125t144.5 -47h237q102 0 175 75t73 183q0 102 -74.5 166t-185.5 78l-233 33q-168 23 -272.5 121t-104.5 256q0 162 112.5 277.5t272.5 115.5 h49v219h137v-219h51q125 0 223.5 -74t139.5 -188l-129 -45q-27 78 -90.5 125t-143.5 47h-237q-102 0 -176 -76t-74 -182q0 -100 76 -165t184 -79l236 -33q166 -23 270 -122t104 -255z" />
<glyph unicode="%" horiz-adv-x="1595" d="M1503 504v-191q0 -131 -92 -222t-221 -91h-16q-131 0 -222.5 91t-91.5 222v191q0 129 91 220t223 91h16q129 0 221 -91t92 -220zM1298 1442l-839 -1442h-158l840 1442h157zM735 1128v-190q0 -129 -92 -221t-221 -92h-16q-131 0 -222.5 92t-91.5 221v190q0 131 91 222.5 t223 91.5h16q129 0 221 -91.5t92 -222.5zM1366 313v191q0 72 -52 124t-124 52h-16q-74 0 -126.5 -52.5t-52.5 -123.5v-191q0 -74 52.5 -126t126.5 -52h16q72 0 124 52t52 126zM598 938v190q0 74 -51 126.5t-125 52.5h-16q-74 0 -126.5 -52.5t-52.5 -126.5v-190 q0 -72 52.5 -124t126.5 -52h16q74 0 125 52t51 124z" />
<glyph unicode="&#x26;" horiz-adv-x="1382" d="M1485 0h-230l-256 188q-51 -86 -140 -137t-195 -51h-146q-164 0 -279.5 115.5t-115.5 279.5q0 201 168 322q-168 133 -168 330q0 164 115.5 279.5t279.5 115.5t278.5 -116t114.5 -279q0 -143 -89 -250t-234 -129l334 -250v303h137v-326q0 -25 -8 -73zM776 1047 q0 106 -75.5 183t-182.5 77q-109 0 -184.5 -76t-75.5 -184q0 -68 29.5 -122.5t59.5 -79t91 -67.5q35 0 79 8.5t108.5 33t107.5 83t43 144.5zM891 270l-481 359q-68 -31 -110 -94.5t-42 -139.5q0 -109 76 -184.5t184 -75.5h146q72 0 132 37t95 98z" />
<glyph unicode="'" horiz-adv-x="401" d="M268 1001h-135v441h135v-441z" />
<glyph unicode="(" horiz-adv-x="749" d="M678 1444v-135q-152 0 -260.5 -108.5t-108.5 -260.5v-436q0 -152 108.5 -259.5t260.5 -107.5v-137q-209 0 -356.5 148.5t-147.5 355.5v436q0 209 147.5 356.5t356.5 147.5z" />
<glyph unicode=")" horiz-adv-x="749" d="M72 1444q209 0 356 -147.5t147 -356.5v-436q0 -207 -147 -355.5t-356 -148.5v137q152 0 260 107.5t108 259.5v436q0 152 -108.5 260.5t-259.5 108.5v135z" />
<glyph unicode="*" horiz-adv-x="522" d="M492 1227l-121 -41l73 -101l-108 -81l-76 102l-74 -100l-110 79l76 103l-121 39l43 129l119 -39v125h137v-125l119 39z" />
<glyph unicode="+" horiz-adv-x="1230" d="M1118 436h-434v-436h-135v436h-436v135h436v435h135v-435h434v-135z" />
<glyph unicode="," horiz-adv-x="401" d="M268 217v-217q0 -70 -36.5 -127t-98.5 -90v82q68 41 68 135h-68v217h135z" />
<glyph unicode="-" horiz-adv-x="722" d="M610 436h-497v135h497v-135z" />
<glyph unicode="." horiz-adv-x="401" d="M268 0h-135v219h135v-219z" />
<glyph unicode="/" horiz-adv-x="686" d="M655 1442l-481 -1442h-143l481 1442h143z" />
<glyph unicode="0" d="M1030 993v-544q0 -186 -131 -317.5t-317.5 -131.5t-317.5 131t-131 318v544q0 186 131 317.5t317.5 131.5t317.5 -131.5t131 -317.5zM895 449v544q0 129 -92 221.5t-221 92.5t-221.5 -92.5t-92.5 -221.5v-544q0 -129 92.5 -220.5t221.5 -91.5t221 91.5t92 220.5z" />
<glyph unicode="1" horiz-adv-x="618" d="M516 0h-135v1307h-381v135h516v-1442z" />
<glyph unicode="2" d="M1022 0h-881v113l494 557q6 6 52 55l91 99q45 50 60 73q47 76 47 152q0 106 -76 182t-182 76h-109q-82 0 -149.5 -48.5t-94.5 -125.5l-129 47q43 119 145.5 190.5t227.5 71.5h109q164 0 279.5 -115t115.5 -278q0 -119 -74 -232q-27 -37 -190 -215l-414 -465h678v-137z " />
<glyph unicode="3" d="M1010 395q0 -164 -115 -279.5t-279 -115.5h-108q-125 0 -228.5 72.5t-144.5 189.5l129 47q27 -78 93.5 -125t150.5 -47h108q106 0 182 76t76 182.5t-75.5 182t-182.5 75.5h-157v135h157q106 0 182 77t76 183.5t-75.5 182.5t-182.5 76h-108q-84 0 -150.5 -48.5 t-93.5 -125.5l-129 47q41 119 143.5 190.5t229.5 71.5h108q162 0 278 -115t116 -278q0 -98 -45 -185.5t-127 -142.5q82 -55 127 -141.5t45 -184.5z" />
<glyph unicode="4" d="M1010 0h-136v436h-761v135l340 871h145l-338 -871h614v435h136v-1006z" />
<glyph unicode="5" d="M1036 395q0 -164 -114.5 -279.5t-278.5 -115.5h-108q-125 0 -228.5 72.5t-144.5 189.5l129 47q27 -78 93.5 -125t150.5 -47h108q106 0 182 76t76 182.5t-75.5 182t-182.5 75.5h-504v789h897v-135h-762v-519h369q164 0 278.5 -115.5t114.5 -277.5z" />
<glyph unicode="6" d="M1040 557v-108q0 -186 -131 -317.5t-317 -131.5t-317.5 131t-131.5 318v544q0 186 131.5 317.5t317.5 131.5q131 0 240.5 -69.5t166.5 -188.5l-122 -58q-41 82 -117 131.5t-168 49.5q-129 0 -221 -92.5t-92 -221.5v-112q133 127 313 127q186 0 317 -132.5t131 -318.5z M905 449v108q0 131 -92 222t-221 91t-221 -91t-92 -222v-108q0 -129 92 -220.5t221 -91.5t221 91.5t92 220.5z" />
<glyph unicode="7" d="M999 1307l-510 -1307h-145l510 1307h-731v135h876v-135z" />
<glyph unicode="8" d="M1030 395q0 -164 -114.5 -279.5t-278.5 -115.5h-109q-164 0 -279.5 115.5t-115.5 279.5q0 98 46 184.5t126 141.5q-80 55 -126 142t-46 186q0 164 116 278.5t279 114.5h109q162 0 277.5 -115t115.5 -278q0 -98 -45 -185.5t-127 -142.5q82 -55 127 -141.5t45 -184.5z M895 1048.5q0 106.5 -76 182.5t-182 76h-109q-106 0 -183 -76t-77 -182.5t77 -183.5t183 -77h109q106 0 182 77t76 183.5zM895 395.5q0 106.5 -76 182t-182 75.5h-109q-106 0 -183 -75.5t-77 -182t76 -182.5t184 -76h109q106 0 182 76t76 182.5z" />
<glyph unicode="9" d="M1020 993v-544q0 -186 -131 -317.5t-318 -131.5q-131 0 -240.5 69.5t-164.5 188.5l123 59q39 -82 115.5 -131t166.5 -49q129 0 221.5 91t92.5 221v114q-131 -127 -314 -127q-186 0 -317 131t-131 318v108q0 186 131 317.5t317.5 131.5t317.5 -131.5t131 -317.5zM885 885 v108q0 129 -92.5 221.5t-221.5 92.5t-221 -92.5t-92 -221.5v-108q0 -129 92 -221.5t221 -92.5t221.5 92.5t92.5 221.5z" />
<glyph unicode=":" horiz-adv-x="401" d="M268 788h-135v218h135v-218zM268 0h-135v219h135v-219z" />
<glyph unicode=";" horiz-adv-x="401" d="M268 434h-135v219h135v-219zM268 217v-217q0 -70 -36.5 -127t-98.5 -90v82q68 41 68 135h-68v217h135z" />
<glyph unicode="&#x3c;" d="M977 -2l-782 444v119l782 445v-156l-612 -348l612 -348v-156z" />
<glyph unicode="=" horiz-adv-x="1230" d="M1118 711h-1005v135h1005v-135zM1118 164h-1005v135h1005v-135z" />
<glyph unicode="&#x3e;" d="M977 442l-782 -444v156l610 348l-610 348v156l782 -445v-119z" />
<glyph unicode="?" horiz-adv-x="987" d="M895 1044q0 -160 -111.5 -274.5t-269.5 -118.5v-217h-135v352h123q106 0 182 76t76 182.5t-76 183.5t-182 77h-109q-84 0 -150.5 -48.5t-92.5 -126.5l-130 48q41 115 143.5 188.5t229.5 73.5h109q164 0 278.5 -116t114.5 -280zM514 -2h-135v219h135v-219z" />
<glyph unicode="@" horiz-adv-x="1271" d="M1139 938v-328q0 -74 -51.5 -125t-124.5 -51q-90 0 -140 70q-82 -70 -186 -70q-119 0 -203 83t-84 202t84 203t203 84q80 0 149 -43v43h136v-396q0 -16 12 -28.5t28.5 -12.5t29 12.5t12.5 28.5v328q0 152 -108 259.5t-259.5 107.5t-260 -107.5t-108.5 -259.5v-436 q0 -152 108.5 -259.5t260.5 -107.5q100 0 185 51.5t134 135.5l119 -68q-68 -117 -183.5 -186.5t-254.5 -69.5q-209 0 -356.5 148.5t-147.5 355.5v436q0 207 147.5 354.5t356.5 147.5q207 0 354.5 -147.5t147.5 -354.5zM786 719q0 63 -44 107t-105 44q-63 0 -106.5 -44 t-43.5 -107q0 -61 43 -105.5t107 -44.5q61 0 105 44.5t44 105.5z" />
<glyph unicode="A" horiz-adv-x="1148" d="M1118 0h-143l-107 322h-587l-107 -322h-143l479 1442h129zM823 457l-250 747l-247 -747h497z" />
<glyph unicode="B" horiz-adv-x="1292" d="M1180 393q0 -162 -112 -277.5t-271 -115.5h-623v1442h623q160 0 271.5 -117t111.5 -278q0 -98 -44 -184.5t-124 -141.5q80 -55 124 -142.5t44 -185.5zM1044 1047q0 106 -71.5 182t-175.5 76h-488v-517h488q104 0 175.5 77.5t71.5 181.5zM1044 393q0 106 -71.5 183 t-175.5 77h-488v-518h488q104 0 175.5 77t71.5 181z" />
<glyph unicode="C" horiz-adv-x="1175" d="M1073 1190l-119 -70q-49 86 -134 135.5t-183 49.5q-152 0 -260.5 -107.5t-108.5 -259.5v-434q0 -152 108.5 -260.5t260.5 -108.5q98 0 183 50.5t134 133.5l119 -67q-68 -117 -184.5 -184.5t-251.5 -67.5q-209 0 -356.5 147.5t-147.5 356.5v434q0 209 147.5 356.5 t356.5 147.5q135 0 251.5 -67.5t184.5 -184.5z" />
<glyph unicode="D" horiz-adv-x="1312" d="M1180 938v-434q0 -209 -147.5 -356.5t-354.5 -147.5h-504v1442h504q207 0 354.5 -147.5t147.5 -356.5zM1044 504v434q0 152 -107.5 259.5t-258.5 107.5h-369v-1170h369q152 0 259 108.5t107 260.5z" />
<glyph unicode="E" horiz-adv-x="1323" d="M1180 0h-1006v1442h1006v-137h-871v-517h871v-135h-871v-518h871v-135z" />
<glyph unicode="F" horiz-adv-x="1292" d="M1180 653h-871v-653h-135v1442h1006v-137h-871v-517h871v-135z" />
<glyph unicode="G" horiz-adv-x="1282" d="M1139 0h-135v160q-147 -160 -367 -160q-209 0 -356.5 147.5t-147.5 356.5v434q0 209 147.5 356.5t356.5 147.5q135 0 252 -67.5t184 -184.5l-119 -70q-49 86 -134 135.5t-183 49.5q-152 0 -260.5 -107.5t-108.5 -259.5v-434q0 -152 108.5 -260.5t260 -108.5t259.5 108.5 t108 260.5v149h-367v135h502v-788z" />
<glyph unicode="H" horiz-adv-x="1355" d="M1180 0h-136v653h-735v-653h-135v1442h135v-654h735v654h136v-1442z" />
<glyph unicode="I" horiz-adv-x="483" d="M309 0h-135v1442h135v-1442z" />
<glyph unicode="J" horiz-adv-x="833" d="M680 1442v-993q0 -186 -132 -317.5t-319 -131.5h-198v135h198q131 0 222.5 92t91.5 222v993h137z" />
<glyph unicode="K" horiz-adv-x="1275" d="M1241 0h-164l-512 770l-256 -254v-516h-135v1442h135v-733l740 733h192l-577 -574z" />
<glyph unicode="L" horiz-adv-x="1210" d="M1180 0h-1006v1442h135v-1307h871v-135z" />
<glyph unicode="M" horiz-adv-x="1640" d="M1468 0h-137v1053l-467 -1053h-88l-467 1053v-1053h-135v1442h121l526 -1206l525 1206h122v-1442z" />
<glyph unicode="N" horiz-adv-x="1353" d="M1180 0h-101l-770 1149v-1149h-135v1442h102l768 -1149v1149h136v-1442z" />
<glyph unicode="O" horiz-adv-x="1271" d="M1139 938v-434q0 -209 -147.5 -356.5t-354.5 -147.5q-209 0 -356.5 147.5t-147.5 356.5v434q0 209 147.5 356.5t356.5 147.5q207 0 354.5 -147.5t147.5 -356.5zM1004 504v434q0 152 -108 260.5t-259.5 108.5t-260 -108.5t-108.5 -260.5v-434q0 -152 108.5 -259.5 t260 -107.5t259.5 107.5t108 259.5z" />
<glyph unicode="P" horiz-adv-x="1241" d="M1180 1046.5q0 -161.5 -112 -277.5t-271 -116h-488v-653h-135v1442h623q160 0 271.5 -117t111.5 -278.5zM1044 1047q0 106 -71.5 183t-175.5 77h-488v-519h488q104 0 175.5 77.5t71.5 181.5z" />
<glyph unicode="Q" horiz-adv-x="1282" d="M1139 94l-97 -96l-102 104q-133 -104 -303 -104q-209 0 -356.5 148.5t-147.5 355.5v436q0 207 147.5 354.5t356.5 147.5q207 0 354.5 -147.5t147.5 -354.5v-436q0 -172 -103 -303zM1004 502v436q0 152 -108 259.5t-259.5 107.5t-260 -107.5t-108.5 -259.5v-436 q0 -152 108.5 -259.5t260 -107.5t259.5 107.5t108 259.5z" />
<glyph unicode="R" horiz-adv-x="1271" d="M1180 0h-148l-291 653h-432v-653h-135v1442h623q160 0 271.5 -117t111.5 -278q0 -137 -83 -245t-212 -138zM1044 1046.5q0 108.5 -72.5 183.5t-174.5 75h-488v-517h488q102 0 174.5 75t72.5 183.5z" />
<glyph unicode="S" horiz-adv-x="1189" d="M1096 395q0 -162 -112 -278.5t-271 -116.5h-238q-123 0 -223 73.5t-141 190.5l129 45q27 -78 91 -126t144 -48h238q104 0 176 77t72 183q0 102 -76 165t-185 77q-78 12 -233 33q-164 23 -270.5 121t-106.5 256q0 162 111.5 278.5t273.5 116.5h238q123 0 222 -74t140 -190 l-129 -43q-27 76 -90 124t-143 48h-238q-104 0 -177 -77t-73 -183q0 -102 76 -165t184 -77q86 -14 236 -33q164 -23 269.5 -121t105.5 -256z" />
<glyph unicode="T" horiz-adv-x="1064" d="M1036 1307h-434v-1307h-135v1307h-436v135h1005v-135z" />
<glyph unicode="U" horiz-adv-x="1314" d="M1159 1442v-938q0 -209 -147.5 -356.5t-354.5 -147.5q-209 0 -356 147.5t-147 356.5v938h135v-938q0 -152 108.5 -260.5t260 -108.5t259 108.5t107.5 260.5v938h135z" />
<glyph unicode="V" horiz-adv-x="1103" d="M1104 1442l-481 -1442h-144l-479 1442h143l408 -1227l410 1227h143z" />
<glyph unicode="W" horiz-adv-x="1437" d="M1427 1442l-319 -1442h-139l-250 1128l-250 -1128h-139l-320 1442h140l249 -1129l250 1129h139l250 -1129l250 1129h139z" />
<glyph unicode="X" horiz-adv-x="1142" d="M1133 1442l-480 -721l480 -721h-164l-398 598l-397 -598h-164l479 721l-479 721h164l397 -598l400 598h162z" />
<glyph unicode="Y" horiz-adv-x="1142" d="M1133 1442l-494 -742v-700h-135v700l-494 742h164l397 -598l398 598h164z" />
<glyph unicode="Z" horiz-adv-x="1189" d="M1098 0h-1006v135l832 1170h-832v137h1006v-137l-830 -1170h830v-135z" />
<glyph unicode="[" horiz-adv-x="604" d="M532 0h-358v1442h358v-137h-223v-1170h223v-135z" />
<glyph unicode="\" horiz-adv-x="686" d="M655 0h-143l-481 1442h143z" />
<glyph unicode="]" horiz-adv-x="604" d="M430 0h-358v135h221v1170h-221v137h358v-1442z" />
<glyph unicode="^" horiz-adv-x="970" d="M150 651l-119 70l395 721h119l395 -723l-119 -68l-336 619z" />
<glyph unicode="_" horiz-adv-x="1230" d="M1118 0h-1005v135h1005v-135z" />
<glyph unicode="`" horiz-adv-x="438" d="M346 1331l-65 -117l-189 111l66 117z" />
<glyph unicode="a" horiz-adv-x="1142" d="M999 0h-135v96q-113 -96 -258 -96h-219q-117 0 -201 84t-84 201q0 119 84 202.5t201 83.5h328q150 0 149 95q0 104 -74.5 154t-183.5 50h-108q-82 0 -149.5 -47t-96.5 -125l-127 45q41 119 143.5 191t229.5 72h108q166 0 279.5 -89.5t113.5 -250.5v-666zM864 461 q-63 -25 -149 -25h-328q-61 0 -105 -44t-44 -107q0 -61 44 -105.5t105 -44.5h219q106 0 182 77t76 183v66z" />
<glyph unicode="b" d="M1061 557v-108q0 -186 -131 -317.5t-318 -131.5q-182 0 -313 127v-127h-135v1442h135v-563q131 127 313 127q186 0 317.5 -131.5t131.5 -317.5zM926 449v108q0 129 -92.5 221t-221.5 92t-221 -92t-92 -221v-108q0 -129 92 -221.5t221 -92.5t221.5 92.5t92.5 221.5z" />
<glyph unicode="c" horiz-adv-x="1038" d="M956 750l-122 -58q-39 82 -116 130t-167 48q-129 0 -221 -92t-92 -221v-108q0 -129 92 -221.5t221 -92.5q90 0 167 49t116 131l122 -59q-55 -117 -164.5 -186.5t-240.5 -69.5q-186 0 -317.5 131t-131.5 318v108q0 186 131.5 317.5t317.5 131.5q131 0 240.5 -68.5 t164.5 -187.5z" />
<glyph unicode="d" d="M999 0h-135v127q-131 -127 -313 -127q-186 0 -317.5 131t-131.5 318v108q0 186 131.5 317.5t317.5 131.5q182 0 313 -127v563h135v-1442zM864 449v108q0 129 -92 221t-221 92t-221 -92t-92 -221v-108q0 -129 92 -221.5t221 -92.5t221 92.5t92 221.5z" />
<glyph unicode="e" horiz-adv-x="1101" d="M999 557v-121h-759q4 -127 95 -214t216 -87q90 0 167 49t116 131l122 -59q-55 -117 -164.5 -186.5t-240.5 -69.5q-186 0 -317.5 131t-131.5 318v108q0 186 131.5 317.5t317.5 131.5t317 -131.5t131 -317.5zM864 571q-6 125 -97 212t-216 87t-216 -87t-95 -212h624z" />
<glyph unicode="f" horiz-adv-x="704" d="M653 868h-254v-870h-135v870h-254v136h254v149q0 119 83 203t202 84h104v-135h-104q-61 0 -105.5 -44t-44.5 -108v-149h254v-136z" />
<glyph unicode="g" d="M999 1008v-994q0 -186 -131 -317t-317 -131q-131 0 -240.5 69.5t-165.5 186.5l123 59q39 -82 116 -131t167 -49q129 0 221 92t92 221v113q-131 -127 -313 -127q-186 0 -317.5 131t-131.5 318v108q0 186 131.5 318.5t317.5 132.5q180 0 313 -127v127h135zM864 449v108 q0 131 -92 222t-221 91t-221 -91t-92 -222v-108q0 -129 92 -221.5t221 -92.5t221 92.5t92 221.5z" />
<glyph unicode="h" horiz-adv-x="1193" d="M1061 0h-135v557q0 131 -92.5 222t-221.5 91t-221 -91t-92 -222v-557h-135v1442h135v-563q131 127 313 127q186 0 317.5 -131.5t131.5 -317.5v-557z" />
<glyph unicode="i" horiz-adv-x="462" d="M299 1223h-135v219h135v-219zM299 0h-135v1006h135v-1006z" />
<glyph unicode="j" horiz-adv-x="387" d="M315 1223h-135v219h135v-219zM315 1006v-1156q0 -119 -82.5 -202.5t-201.5 -83.5h-31v137h31q61 0 105 43t44 106v1156h135z" />
<glyph unicode="k" d="M1112 0h-158l-338 580l-317 -273v-307h-135v1442h135v-955l604 519h209l-391 -336z" />
<glyph unicode="l" horiz-adv-x="462" d="M299 0h-135v1442h135v-1442z" />
<glyph unicode="m" horiz-adv-x="1456" d="M1313 0h-135v692q0 82 -56.5 130t-138.5 48q-72 0 -124 -52t-52 -126v-692h-137v692q0 82 -55.5 130t-137.5 48q-74 0 -126 -52t-52 -126v-692h-135v1006h135v-56q80 55 195 56q154 0 245 -119q90 119 260 119q131 0 222.5 -91.5t91.5 -222.5v-692z" />
<glyph unicode="n" horiz-adv-x="1193" d="M1061 0h-135v557q0 129 -92.5 221t-221.5 92t-221 -92t-92 -221v-557h-135v1006h135v-127q131 127 313 127q186 0 317.5 -131.5t131.5 -317.5v-557z" />
<glyph unicode="o" horiz-adv-x="1101" d="M999 557v-108q0 -186 -131 -317.5t-317 -131.5t-317.5 131t-131.5 318v108q0 186 131.5 317.5t317.5 131.5t317 -131.5t131 -317.5zM864 449v108q0 129 -92 221t-221 92t-221 -92t-92 -221v-108q0 -129 92 -221.5t221 -92.5t221 92.5t92 221.5z" />
<glyph unicode="p" d="M1061 557v-108q0 -186 -131 -317.5t-318 -131.5q-182 0 -313 127v-545h-135v1426h135v-127q133 127 313 127q186 0 317.5 -132.5t131.5 -318.5zM926 449v108q0 131 -92.5 222t-221.5 91t-221 -91t-92 -222v-108q0 -129 92 -221.5t221 -92.5t221.5 92.5t92.5 221.5z" />
<glyph unicode="q" d="M999 -418h-135v545q-131 -127 -313 -127q-186 0 -317.5 131t-131.5 318v108q0 186 131.5 318.5t317.5 132.5q180 0 313 -127v127h135v-1426zM864 449v108q0 131 -92 222t-221 91t-221 -91t-92 -222v-108q0 -129 92 -221.5t221 -92.5t221 92.5t92 221.5z" />
<glyph unicode="r" horiz-adv-x="720" d="M680 870h-68q-129 0 -221 -92t-92 -221v-557h-135v1006h135v-127q131 127 313 127h68v-136z" />
<glyph unicode="s" horiz-adv-x="1081" d="M969 287q0 -119 -83 -203t-202 -84h-229q-127 0 -229.5 73.5t-143.5 190.5l129 45q27 -76 93.5 -125t150.5 -49h229q61 0 105.5 44t44.5 108q0 66 -54.5 94.5t-152.5 40.5l-213 31q-51 8 -91 16t-90.5 28.5t-83 47t-55 73t-22.5 103.5q0 119 83 203t201 84h232 q127 0 228.5 -74t141.5 -191l-127 -45q-29 76 -94 124t-149 48h-232q-61 0 -105 -43t-44 -106q0 -49 41 -80t82 -40t110 -19l203 -27q326 -43 326 -268z" />
<glyph unicode="t" horiz-adv-x="704" d="M633 0h-105q-119 0 -201.5 83t-82.5 202v585h-254v136h254v436h135v-436h254v-136h-254v-585q0 -61 44 -105.5t105 -44.5h105v-135z" />
<glyph unicode="u" horiz-adv-x="1193" d="M1030 0h-135v127q-131 -127 -313 -127q-186 0 -317.5 131t-131.5 318v557h135v-557q0 -129 92.5 -221.5t221.5 -92.5t221 91t92 220v560h135v-1006z" />
<glyph unicode="v" horiz-adv-x="1040" d="M1040 1006l-446 -1006h-148l-446 1006h150l370 -838l371 838h149z" />
<glyph unicode="w" horiz-adv-x="1370" d="M1350 1006l-297 -1006h-142l-227 766l-225 -766h-142l-297 1006h142l225 -766l227 766h142l225 -766l225 766h144z" />
<glyph unicode="x" horiz-adv-x="1019" d="M1030 1006l-430 -502l430 -504h-180l-340 399l-342 -399h-178l430 504l-430 502h178l342 -398l340 398h180z" />
<glyph unicode="y" horiz-adv-x="1196" d="M1118 1006l-637 -1438h-149l192 432l-446 1006h149l371 -838l371 838h149z" />
<glyph unicode="z" horiz-adv-x="1019" d="M958 0h-897v135l719 735h-719v136h897v-136l-716 -735h716v-135z" />
<glyph unicode="{" horiz-adv-x="727" d="M655 0h-137q-119 0 -203 84t-84 203v217q0 63 -44 106t-105 43v138q61 0 105 43t44 106v217q0 119 84 202t203 83h137v-135h-137q-63 0 -107 -44t-44 -106v-217q0 -133 -101 -219q100 -84 101 -217v-217q0 -61 44 -105.5t107 -44.5h137v-137z" />
<glyph unicode="|" horiz-adv-x="483" d="M309 0h-135v1442h135v-1442z" />
<glyph unicode="}" horiz-adv-x="727" d="M645 653q-61 0 -105 -43t-44 -106v-217q0 -119 -83 -203t-202 -84h-139v137h139q61 0 105 44t44 106v217q0 133 101 217q-100 86 -101 219v217q0 61 -44 105.5t-105 44.5h-139v135h139q119 0 202 -83t83 -202v-217q0 -63 44 -106t105 -43v-138z" />
<glyph unicode="~" horiz-adv-x="1028" d="M918 504l-48 -47q-86 -86 -202.5 -86t-200.5 84q-45 45 -108.5 45t-104.5 -43l-47 -49l-96 96l47 47q84 84 202 84q115 0 203 -84q43 -43 105 -43q63 0 106 43l47 49z" />
<glyph unicode="&#xa1;" horiz-adv-x="483" d="M309 1225h-135v217h135v-217zM309 0h-135v1006h135v-1006z" />
<glyph unicode="&#xa2;" d="M1018 750l-123 -58q-39 82 -116 130t-167 48q-129 0 -221 -92t-92 -221v-108q0 -129 92 -221.5t221 -92.5q90 0 167 49t116 131l123 -59q-47 -100 -138.5 -168t-201.5 -84v-221h-135v223q-162 25 -270.5 151t-108.5 292v108q0 168 108.5 293t270.5 151v224h135v-224 q113 -16 203 -82.5t137 -168.5z" />
<glyph unicode="&#xa3;" horiz-adv-x="1275" d="M1245 0h-1005v653h-209v135h209v150q0 209 147.5 356.5t355.5 147.5q137 0 253 -68.5t184 -183.5l-119 -68q-49 84 -134 134.5t-184 50.5q-152 0 -260 -108.5t-108 -260.5v-150h514v-135h-514v-518h735v150h135v-285z" />
<glyph unicode="&#xa4;" horiz-adv-x="1263" d="M1161 72l-96 -97l-137 138q-131 -111 -295 -111q-168 0 -295 111l-139 -138l-97 97l146 145q-66 111 -66 236v108q0 127 68 234l-148 147l97 96l139 -139q127 111 295 111q164 0 295 -111l137 139l96 -96l-145 -147q66 -109 65 -234v-108q0 -125 -65 -236zM944 453v108 q0 129 -91 220t-220 91q-131 0 -222.5 -91t-91.5 -220v-108q0 -131 91.5 -222.5t222.5 -91.5q129 0 220 91.5t91 222.5z" />
<glyph unicode="&#xa5;" horiz-adv-x="1183" d="M1153 1442l-334 -504h221v-135h-311l-70 -103v-196h381v-137h-381v-367h-135v367h-381v137h381v196l-67 103h-314v135h224l-336 504h164l397 -598l397 598h164z" />
<glyph unicode="&#xa6;" horiz-adv-x="483" d="M309 1071h-135v440h135v-440zM309 2h-135v440h135v-440z" />
<glyph unicode="&#xa7;" horiz-adv-x="1122" d="M1028 283q0 -119 -83 -202t-202 -83h-235q-127 0 -229.5 73.5t-143.5 190.5l129 45q27 -76 93.5 -125t150.5 -49h235q61 0 105.5 44t44.5 106q0 45 -51 81.5t-140 49.5l-323 45q-106 14 -177 95t-71 185q0 137 107 224q-106 72 -106.5 190.5t82.5 202.5t202 84h237 q127 0 228.5 -74t144.5 -190l-129 -46q-27 76 -93.5 124.5t-150.5 48.5h-237q-61 0 -105.5 -43t-44.5 -107q0 -45 52.5 -81t140.5 -48l323 -45q106 -14 175 -95t69 -188q0 -139 -104 -221q106 -71 106 -192zM889 676q0 4 1 11t1 11q0 55 -37 96.5t-92 49.5l-324 45 q-4 0 -11 1t-11 1q-59 0 -103.5 -44t-44.5 -108q0 -55 37 -96t92 -49l324 -47q6 -2 18 -2q55 0 98.5 37t51.5 94z" />
<glyph unicode="&#xa8;" horiz-adv-x="694" d="M561 1225h-135v217h135v-217zM268 1225h-135v217h135v-217z" />
<glyph unicode="&#xa9;" horiz-adv-x="1669" d="M1556 723q0 -299 -211.5 -511t-510.5 -212t-510 212t-211 511q0 297 212 509t509 212q299 0 510.5 -211t211.5 -510zM1473 723q0 262 -187.5 449.5t-451.5 187.5q-262 0 -449.5 -187.5t-187.5 -449.5q0 -264 187 -450.5t450 -186.5q264 0 451.5 186.5t187.5 450.5z M1130 1042l-73 -43q-35 59 -94.5 94t-128.5 35q-106 0 -181 -74.5t-75 -181.5v-299q0 -106 74.5 -182t181.5 -76q70 0 129 36t94 93l71 -43q-43 -78 -121.5 -124t-172.5 -46q-141 0 -241.5 100.5t-100.5 241.5v299q0 141 100 240.5t242 99.5q94 0 172.5 -46t123.5 -124z" />
<glyph unicode="&#xaa;" horiz-adv-x="610" d="M477 1008h-57v41q-47 -41 -113 -41h-92q-51 0 -87 35.5t-36 87t36 87t87 35.5h139q66 0 66 41q0 86 -113 86h-45q-35 0 -64.5 -20.5t-39.5 -52.5l-56 20q16 51 61.5 82t98.5 31h45q72 0 121 -38t49 -108v-286zM420 1206q-31 -12 -66 -12h-139q-27 0 -46 -18.5t-19 -45 t19 -46t46 -19.5h92q45 0 79 32.5t34 80.5v28z" />
<glyph unicode="&#xab;" horiz-adv-x="1191" d="M1079 0h-180l-405 459v90l405 457h180l-442 -502zM698 0h-182l-403 459v90l403 457h182l-444 -502z" />
<glyph unicode="&#xac;" horiz-adv-x="1148" d="M1057 0h-135v436h-871v135h1006v-571z" />
<glyph unicode="&#xad;" horiz-adv-x="722" d="M610 436h-497v135h497v-135z" />
<glyph unicode="&#xae;" horiz-adv-x="1669" d="M1556 723q0 -299 -211.5 -511t-510.5 -212t-510 212t-211 511q0 297 212 509t509 212q299 0 510.5 -211t211.5 -510zM1473 723q0 262 -187.5 449.5t-451.5 187.5q-262 0 -449.5 -187.5t-187.5 -449.5q0 -264 187 -450.5t450 -186.5q264 0 451.5 186.5t187.5 450.5z M1176 946q0 -88 -51.5 -157.5t-131.5 -96.5l187 -418h-97l-178 406h-327v-406h-84l-2 938h423q109 0 185 -77.5t76 -188.5zM1092 946q0 76 -52.5 129t-124.5 53h-337v-362h337q72 0 124.5 52t52.5 128z" />
<glyph unicode="&#xaf;" horiz-adv-x="673" d="M561 1305h-448v135h448v-135z" />
<glyph unicode="&#xb0;" horiz-adv-x="827" d="M735 1128v-190q0 -129 -92 -221t-221 -92h-16q-131 0 -222.5 92t-91.5 221v190q0 131 91 222.5t223 91.5h16q129 0 221 -91.5t92 -222.5zM598 938v190q0 74 -51 126.5t-125 52.5h-16q-74 0 -126.5 -52.5t-52.5 -126.5v-190q0 -72 52.5 -124t126.5 -52h16q74 0 125 52 t51 124z" />
<glyph unicode="&#xb1;" horiz-adv-x="1128" d="M1067 0h-1006v135h1006v-135zM1067 870h-434v-436h-135v436h-437v136h437v434h135v-434h434v-136z" />
<glyph unicode="&#xb2;" horiz-adv-x="686" d="M553 698h-440v58l348 391q25 27 24 76q0 53 -37.5 91t-91.5 38h-55q-41 0 -74.5 -23.5t-46.5 -62.5l-65 22q20 59 71.5 95t114.5 36h55q82 0 139.5 -57t57.5 -139q0 -76 -37 -115l-303 -340h340v-70z" />
<glyph unicode="&#xb3;" horiz-adv-x="663" d="M541 897q0 -82 -58.5 -140.5t-140.5 -58.5h-53q-63 0 -114.5 37t-72.5 96l64 23q31 -86 123 -86h53q53 0 91 38t38 91t-38 91t-91 38h-78v68h78q53 0 91 37.5t38 91t-38 91.5t-91 38h-53q-92 0 -123 -86l-64 22q20 59 71.5 95t115.5 36h53q82 0 140.5 -57t58.5 -139 q0 -102 -88 -164q88 -58 88 -162z" />
<glyph unicode="&#xb4;" horiz-adv-x="438" d="M158 1214l-66 117l189 111l65 -117z" />
<glyph unicode="&#xb5;" horiz-adv-x="1224" d="M1061 0h-135v127q-131 -127 -313.5 -127t-313.5 127v-563h-135v1444h135v-559q0 -129 92 -221.5t221 -92.5t221.5 91t92.5 220v562h135v-1008z" />
<glyph unicode="&#x3bc;" horiz-adv-x="1224" d="M1061 0h-135v127q-131 -127 -313.5 -127t-313.5 127v-563h-135v1444h135v-559q0 -129 92 -221.5t221 -92.5t221.5 91t92.5 220v562h135v-1008z" />
<glyph unicode="&#xb6;" horiz-adv-x="1220" d="M1047 0h-136v653h-155v-653h-135v653h-195q-162 0 -273.5 116t-111.5 277.5t111.5 278.5t273.5 117h621v-1442zM911 788v519h-155v-519h155z" />
<glyph unicode="&#xb7;" horiz-adv-x="401" d="M268 436h-135v217h135v-217z" />
<glyph unicode="&#xb8;" horiz-adv-x="348" d="M297 -150q0 -51 -36 -86.5t-87 -35.5t-87 35.5t-36 86.5h27q0 -39 28.5 -66.5t67.5 -27.5t66.5 28t27.5 66.5t-27.5 67.5t-66.5 29h-14v84h26v-58q47 -6 79 -41t32 -82z" />
<glyph unicode="&#xb9;" horiz-adv-x="503" d="M330 721h-68v653h-190v68h258v-721z" />
<glyph unicode="&#xba;" horiz-adv-x="589" d="M487 1247v-47q0 -80 -56 -136t-136 -56t-136.5 56t-56.5 136v47q0 80 56.5 136.5t136.5 56.5t136 -56.5t56 -136.5zM430 1200v47q0 55 -40 94t-95 39t-95 -38.5t-40 -94.5v-47q0 -55 40 -95t95 -40t95 40t40 95z" />
<glyph unicode="&#xbb;" horiz-adv-x="1171" d="M1059 459l-404 -459h-182l445 504l-445 502h182l404 -457v-90zM698 459l-405 -459h-180l442 504l-442 502h180l405 -457v-90z" />
<glyph unicode="&#xbc;" horiz-adv-x="1222" d="M1032 1442l-846 -1442h-77l841 1442h82zM330 721h-68v653h-190v68h258v-721zM1069 0h-68v217h-380v68l127 436h69l-127 -436h311v219h68v-504z" />
<glyph unicode="&#xbd;" horiz-adv-x="1191" d="M1032 1442l-846 -1442h-77l841 1442h82zM330 721h-68v653h-190v68h258v-721zM1069 0h-440v57q346 389 348 392q25 35 24 75q0 53 -38.5 91t-92.5 38h-53q-90 0 -123 -86l-63 23q20 57 71.5 94t114.5 37h53q82 0 140.5 -57.5t58.5 -139.5q0 -63 -37 -114l-303 -342h340 v-68z" />
<glyph unicode="&#xbe;" horiz-adv-x="1191" d="M551 897q0 -82 -58.5 -140.5t-140.5 -58.5h-53q-63 0 -114.5 37t-71.5 96l63 23q31 -86 123 -86h53q53 0 91 38t38 91t-37.5 91t-91.5 38h-78v68h78q53 0 91 37.5t38 91t-37.5 91.5t-91.5 38h-53q-92 0 -123 -86l-63 22q20 59 71.5 95t114.5 36h53q82 0 140.5 -57 t58.5 -139q0 -102 -88 -164q88 -58 88 -162zM1073 1442l-846 -1442h-77l841 1442h82zM1038 0h-67v217h-381v68l127 436h71l-126 -436h309v219h67v-504z" />
<glyph unicode="&#xbf;" horiz-adv-x="987" d="M610 1223h-137v217h137v-217zM967 262q-41 -117 -142.5 -190.5t-228.5 -73.5h-109q-164 0 -279.5 115.5t-115.5 279.5q0 160 111.5 274.5t269.5 120.5v218h137v-355h-123q-109 0 -184.5 -75.5t-75.5 -182t76 -182.5t184 -76h109q84 0 149.5 48t94.5 124z" />
<glyph unicode="&#xc0;" horiz-adv-x="1148" d="M1118 0h-143l-107 322h-587l-107 -322h-143l479 1442h129zM823 457l-250 747l-247 -747h497zM711 1690l-66 -117l-188 110l65 117z" />
<glyph unicode="&#xc1;" horiz-adv-x="1148" d="M1118 0h-143l-107 322h-587l-107 -322h-143l479 1442h129zM823 457l-250 747l-247 -747h497zM522 1573l-65 117l188 110l66 -117z" />
<glyph unicode="&#xc2;" horiz-adv-x="1148" d="M1118 0h-143l-107 322h-587l-107 -322h-143l479 1442h129zM823 457l-250 747l-247 -747h497zM432 1573l-67 121l188 108h37l188 -108l-67 -121l-140 80z" />
<glyph unicode="&#xc3;" horiz-adv-x="1148" d="M1118 0h-143l-107 322h-587l-107 -322h-143l479 1442h129zM823 457l-250 747l-247 -747h497zM238 1556v68q0 88 61 149.5t150 61.5q51 0 93 -22.5t64.5 -49t49 -49t53.5 -22.5q33 0 54 22.5t21 52.5v68h136v-68q0 -88 -61.5 -149.5t-149.5 -61.5q-51 0 -93.5 23t-65 48.5 t-49 48t-52.5 22.5q-33 0 -54.5 -21.5t-21.5 -52.5v-68h-135z" />
<glyph unicode="&#xc4;" horiz-adv-x="1148" d="M788 1571h-135v219h135v-219zM496 1571h-136v219h136v-219zM1118 0h-143l-107 322h-587l-107 -322h-143l479 1442h129zM823 457l-250 747l-247 -747h497z" />
<glyph unicode="&#xc5;" horiz-adv-x="1148" d="M764 1718q0 -78 -55.5 -134t-135.5 -56q-78 0 -134 56t-56 134t56.5 134.5t133.5 56.5q80 0 135.5 -56.5t55.5 -134.5zM1118 0h-143l-107 322h-587l-107 -322h-143l479 1442h129zM655 1718q0 35 -24.5 58.5t-57 23.5t-57 -23.5t-24.5 -58.5t24.5 -58.5t57 -23.5t57 23.5 t24.5 58.5zM823 457l-250 747l-247 -747h497z" />
<glyph unicode="&#xc6;" horiz-adv-x="1998" d="M1855 0h-937v322h-551l-213 -322h-164l960 1442h905v-135h-800v-519h800v-135h-800v-518h800v-135zM918 1149l-459 -692h459v692z" />
<glyph unicode="&#xc7;" horiz-adv-x="1175" d="M1073 1190l-119 -70q-49 86 -134 135.5t-183 49.5q-152 0 -260.5 -107.5t-108.5 -259.5v-434q0 -152 108.5 -260.5t260.5 -108.5q98 0 183 50.5t134 133.5l119 -67q-66 -115 -179.5 -182.5t-244.5 -69.5v-27q47 -6 78 -40.5t31 -82.5q0 -51 -36 -86.5t-87 -35.5t-87 35.5 t-36 86.5h29q0 -39 27.5 -66.5t66.5 -27.5t67.5 28t28.5 66.5t-27.5 67.5t-68.5 29h-12v53q-205 6 -347.5 152.5t-142.5 351.5v434q0 209 147.5 356.5t356.5 147.5q135 0 251.5 -67.5t184.5 -184.5z" />
<glyph unicode="&#xc8;" horiz-adv-x="1323" d="M1180 0h-1006v1442h1006v-137h-871v-517h871v-135h-871v-518h871v-135zM813 1690l-65 -117l-189 110l66 117z" />
<glyph unicode="&#xc9;" horiz-adv-x="1323" d="M1180 0h-1006v1442h1006v-137h-871v-517h871v-135h-871v-518h871v-135zM625 1573l-66 117l189 110l65 -117z" />
<glyph unicode="&#xca;" horiz-adv-x="1323" d="M1180 0h-1006v1442h1006v-137h-871v-517h871v-135h-871v-518h871v-135zM535 1573l-68 121l188 108h37l189 -108l-68 -121l-139 80z" />
<glyph unicode="&#xcb;" horiz-adv-x="1323" d="M920 1573h-136v219h136v-219zM569 1573h-135v219h135v-219zM1180 0h-1006v1442h1006v-137h-871v-517h871v-135h-871v-518h871v-135z" />
<glyph unicode="&#xcc;" horiz-adv-x="483" d="M309 0h-135v1442h135v-1442zM362 1690l-65 -117l-188 110l65 117z" />
<glyph unicode="&#xcd;" horiz-adv-x="483" d="M309 0h-135v1442h135v-1442zM174 1573l-65 117l188 110l65 -117z" />
<glyph unicode="&#xce;" horiz-adv-x="487" d="M309 0h-135v1442h135v-1442zM104 1573l-67 121l188 108h37l189 -108l-68 -121l-139 80z" />
<glyph unicode="&#xcf;" horiz-adv-x="483" d="M459 1573h-137v217h137v-217zM166 1573h-137v217h137v-217zM309 0h-135v1442h135v-1442z" />
<glyph unicode="&#xd0;" horiz-adv-x="1372" d="M1239 938v-434q0 -209 -147.5 -356.5t-356.5 -147.5h-504v653h-221v135h221v654h504q209 0 356.5 -147.5t147.5 -356.5zM1102 504v434q0 152 -107.5 260.5t-259.5 108.5h-366v-519h221v-135h-221v-516h366q152 0 259.5 107.5t107.5 259.5z" />
<glyph unicode="&#xd1;" horiz-adv-x="1353" d="M1180 0h-101l-770 1149v-1149h-135v1442h102l768 -1149v1149h136v-1442zM334 1556v68q0 88 61.5 149.5t149.5 61.5q51 0 93 -22.5t64.5 -49t49 -49t53.5 -22.5q33 0 54.5 22.5t21.5 52.5v68h135v-68q0 -88 -61.5 -149.5t-149.5 -61.5q-51 0 -93 23t-64.5 48.5t-49.5 48 t-53 22.5q-33 0 -54.5 -21.5t-21.5 -52.5v-68h-135z" />
<glyph unicode="&#xd2;" horiz-adv-x="1271" d="M1139 938v-434q0 -209 -147.5 -356.5t-354.5 -147.5q-209 0 -356.5 147.5t-147.5 356.5v434q0 209 147.5 356.5t356.5 147.5q207 0 354.5 -147.5t147.5 -356.5zM1004 504v434q0 152 -108 260.5t-259.5 108.5t-260 -108.5t-108.5 -260.5v-434q0 -152 108.5 -259.5 t260 -107.5t259.5 107.5t108 259.5zM772 1690l-65 -117l-189 110l66 117z" />
<glyph unicode="&#xd3;" horiz-adv-x="1271" d="M1139 938v-434q0 -209 -147.5 -356.5t-354.5 -147.5q-209 0 -356.5 147.5t-147.5 356.5v434q0 209 147.5 356.5t356.5 147.5q207 0 354.5 -147.5t147.5 -356.5zM1004 504v434q0 152 -108 260.5t-259.5 108.5t-260 -108.5t-108.5 -260.5v-434q0 -152 108.5 -259.5 t260 -107.5t259.5 107.5t108 259.5zM543 1573l-66 117l189 110l65 -117z" />
<glyph unicode="&#xd4;" horiz-adv-x="1271" d="M1139 938v-434q0 -209 -147.5 -356.5t-354.5 -147.5q-209 0 -356.5 147.5t-147.5 356.5v434q0 209 147.5 356.5t356.5 147.5q207 0 354.5 -147.5t147.5 -356.5zM1004 504v434q0 152 -108 260.5t-259.5 108.5t-260 -108.5t-108.5 -260.5v-434q0 -152 108.5 -259.5 t260 -107.5t259.5 107.5t108 259.5zM496 1573l-68 121l188 108h37l189 -108l-68 -121l-139 80z" />
<glyph unicode="&#xd5;" horiz-adv-x="1271" d="M1139 504q0 -209 -147.5 -356.5t-354.5 -147.5q-209 0 -356.5 147.5t-147.5 356.5v434q0 209 147.5 356.5t356.5 147.5q207 0 354.5 -147.5t147.5 -356.5v-434zM1004 504v434q0 152 -108 260.5t-259.5 108.5t-260 -108.5t-108.5 -260.5v-434q0 -152 108.5 -259.5 t260 -107.5t259.5 107.5t108 259.5zM297 1556v68q0 88 61.5 149.5t149.5 61.5q51 0 93 -22.5t64.5 -49t49 -49t53.5 -22.5q33 0 54.5 22.5t21.5 52.5v68h135v-68q0 -88 -61.5 -149.5t-149.5 -61.5q-51 0 -93 23t-64.5 48.5t-49 48t-53.5 22.5q-33 0 -54.5 -21.5t-21.5 -52.5 v-68h-135z" />
<glyph unicode="&#xd6;" horiz-adv-x="1271" d="M879 1573h-136v219h136v-219zM528 1573h-135v219h135v-219zM1139 938v-434q0 -209 -147.5 -356.5t-354.5 -147.5q-209 0 -356.5 147.5t-147.5 356.5v434q0 209 147.5 356.5t356.5 147.5q207 0 354.5 -147.5t147.5 -356.5zM1004 504v434q0 152 -108 260.5t-259.5 108.5 t-260 -108.5t-108.5 -260.5v-434q0 -152 108.5 -259.5t260 -107.5t259.5 107.5t108 259.5z" />
<glyph unicode="&#xd7;" horiz-adv-x="931" d="M868 838l-307 -308l309 -307l-96 -96l-309 309l-307 -309l-97 96l310 307l-308 308l97 96l305 -307l307 307z" />
<glyph unicode="&#xd8;" horiz-adv-x="1273" d="M1139 938v-434q0 -209 -147.5 -356.5t-354.5 -147.5q-213 0 -363 154l-102 -154h-33l117 174q-123 143 -123 330v434q0 209 147.5 356.5t356.5 147.5q213 0 362 -154l103 154h33l-117 -176q121 -142 121 -328zM922 1171q-111 135 -285 136q-152 0 -260.5 -108.5 t-108.5 -260.5v-434q0 -117 68 -211zM1004 504v434q0 115 -66 209l-586 -877q111 -135 285 -135q152 0 259.5 108.5t107.5 260.5z" />
<glyph unicode="&#xd9;" horiz-adv-x="1312" d="M1159 1442v-938q0 -209 -147.5 -356.5t-354.5 -147.5q-209 0 -356 147.5t-147 356.5v938h135v-938q0 -152 108.5 -260.5t260 -108.5t259 108.5t107.5 260.5v938h135zM786 1690l-65 -117l-189 110l66 117z" />
<glyph unicode="&#xda;" horiz-adv-x="1312" d="M1159 1442v-938q0 -209 -147.5 -356.5t-354.5 -147.5q-209 0 -356 147.5t-147 356.5v938h135v-938q0 -152 108.5 -260.5t260 -108.5t259 108.5t107.5 260.5v938h135zM598 1573l-66 117l189 110l65 -117z" />
<glyph unicode="&#xdb;" horiz-adv-x="1312" d="M1159 1442v-938q0 -209 -147.5 -356.5t-354.5 -147.5q-209 0 -356 147.5t-147 356.5v938h135v-938q0 -152 108.5 -260.5t260 -108.5t259 108.5t107.5 260.5v938h135zM514 1573l-68 121l189 108h37l188 -108l-67 -121l-140 80z" />
<glyph unicode="&#xdc;" horiz-adv-x="1312" d="M899 1573h-135v219h135v-219zM549 1573h-135v219h135v-219zM1159 1442v-938q0 -209 -147.5 -356.5t-354.5 -147.5q-209 0 -356 147.5t-147 356.5v938h135v-938q0 -152 108.5 -260.5t260 -108.5t259 108.5t107.5 260.5v938h135z" />
<glyph unicode="&#xdd;" horiz-adv-x="1142" d="M1133 1442l-494 -742v-700h-135v700l-494 742h164l397 -598l398 598h164zM481 1573l-65 117l188 110l66 -117z" />
<glyph unicode="&#xde;" horiz-adv-x="1230" d="M1180 719q0 -162 -112 -277.5t-271 -115.5h-488v-326h-135v1442h135v-328h488q160 0 271.5 -116.5t111.5 -278.5zM1044 719q0 106 -71.5 183t-175.5 77h-488v-518h488q104 0 175.5 77t71.5 181z" />
<glyph unicode="&#xdf;" horiz-adv-x="1183" d="M1061 395q0 -164 -116 -279.5t-277 -115.5h-109v137h109q106 0 182 76t76 182.5t-76 182t-182 75.5h-62v138h62q106 0 182 75.5t76 182t-76 182.5t-182 76h-109q-109 0 -184.5 -76t-75.5 -182v-1049h-135v1049q0 164 115.5 278.5t279.5 114.5h109q164 0 278.5 -115 t114.5 -278q0 -100 -46 -186.5t-126 -141.5q80 -53 126 -139.5t46 -186.5z" />
<glyph unicode="&#xe0;" horiz-adv-x="1142" d="M999 0h-135v96q-113 -96 -258 -96h-219q-119 0 -202 84t-83 203t83 201.5t202 82.5h328q150 0 149 97q0 94 -68.5 148t-189.5 54h-108q-84 0 -150.5 -48t-95.5 -124l-127 45q41 117 142.5 191t230.5 74h108q162 0 277.5 -88.5t115.5 -251.5v-668zM864 395v68 q-61 -27 -149 -27h-328q-61 0 -105 -44t-44 -105q0 -63 44 -106.5t105 -43.5h219q106 0 182 74.5t76 183.5zM696 1331l-65 -117l-189 111l66 117z" />
<glyph unicode="&#xe1;" horiz-adv-x="1142" d="M999 0h-135v96q-113 -96 -258 -96h-219q-119 0 -202 84t-83 203t83 201.5t202 82.5h328q150 0 149 97q0 94 -68.5 148t-189.5 54h-108q-84 0 -150.5 -48t-95.5 -124l-127 45q41 117 142.5 191t230.5 74h108q162 0 277.5 -88.5t115.5 -251.5v-668zM864 395v68 q-61 -27 -149 -27h-328q-61 0 -105 -44t-44 -105q0 -63 44 -106.5t105 -43.5h219q106 0 182 74.5t76 183.5zM481 1214l-65 117l188 111l66 -117z" />
<glyph unicode="&#xe2;" horiz-adv-x="1142" d="M999 0h-135v96q-113 -96 -258 -96h-219q-119 0 -202 83t-83 201.5t83 202.5t202 84h328q150 0 149.5 94.5t-69 149.5t-189.5 55h-108q-84 0 -150.5 -48t-95.5 -124l-127 45q41 117 142.5 190t230.5 73h108q162 0 277.5 -88.5t115.5 -251.5v-666zM864 395v66 q-68 -27 -149 -27h-328q-61 0 -105 -43t-44 -106q0 -61 44 -105.5t105 -44.5h219q106 0 182 77t76 183zM406 1212l-68 121l188 109h37l189 -109l-68 -121l-139 80z" />
<glyph unicode="&#xe3;" horiz-adv-x="1142" d="M999 0h-135v96q-113 -96 -258 -96h-219q-119 0 -202 84t-83 203t83 201.5t202 82.5h328q150 0 149 97q0 94 -68.5 148t-189.5 54h-108q-84 0 -150.5 -48t-95.5 -124l-127 45q41 117 143.5 191t229.5 74h108q162 0 277.5 -88.5t115.5 -251.5v-668zM864 463 q-61 -27 -149 -27h-328q-61 0 -105 -44t-44 -105q0 -63 44 -106.5t105 -43.5h219q106 0 182 75t76 183v68zM211 1161v68q0 88 61.5 149.5t149.5 61.5q51 0 93 -22.5t64.5 -49.5t49 -49.5t53.5 -22.5q33 0 54.5 22.5t21.5 53.5v68h135v-68q0 -88 -61.5 -149.5t-149.5 -61.5 q-66 0 -114 36t-81.5 71t-64.5 35q-33 0 -54.5 -21.5t-21.5 -52.5v-68h-135z" />
<glyph unicode="&#xe4;" horiz-adv-x="1142" d="M766 1225h-137v217h137v-217zM473 1225h-137v217h137v-217zM999 0h-135v96q-113 -96 -258 -96h-219q-119 0 -202 84t-83 203t83 201.5t202 82.5h328q150 0 149 97q0 94 -68.5 148t-189.5 54h-108q-84 0 -150.5 -48t-95.5 -124l-127 45q41 117 142.5 191t230.5 74h108 q162 0 277.5 -88.5t115.5 -251.5v-668zM864 463q-61 -27 -149 -27h-328q-61 0 -105 -44t-44 -105q0 -63 44 -106.5t105 -43.5h219q106 0 182 75t76 183v68z" />
<glyph unicode="&#xe5;" horiz-adv-x="1142" d="M741 1251.5q0 -77.5 -55 -134t-135 -56.5q-78 0 -134.5 56.5t-56.5 134t56.5 134t134.5 56.5q80 0 135 -56.5t55 -134zM999 0h-135v96q-113 -96 -258 -96h-219q-119 0 -202 83t-83 201.5t83 202.5t202 84h328q150 0 149.5 94.5t-69 149.5t-189.5 55h-108 q-84 0 -150.5 -48t-95.5 -124l-127 45q41 117 142.5 190t230.5 73h108q162 0 277.5 -88.5t115.5 -251.5v-666zM633 1251.5q0 34.5 -23.5 58t-58.5 23.5t-58.5 -23.5t-23.5 -58t23.5 -58.5t58.5 -24t58.5 24t23.5 58.5zM864 395v66q-68 -27 -149 -27h-328q-61 0 -105 -43 t-44 -106q0 -61 44 -105.5t105 -44.5h219q106 0 182 77t76 183z" />
<glyph unicode="&#xe6;" horiz-adv-x="1843" d="M1741 557v-121h-760q4 -127 95 -214t216 -87q92 0 169 49t114 131l123 -59q-55 -115 -164 -185.5t-242 -70.5q-113 0 -209 52t-159 141q-51 -88 -141.5 -140.5t-196.5 -52.5h-219q-119 0 -202 83t-83 201.5t83 202.5t202 84h327q150 0 150 94.5t-68.5 149.5t-189.5 55 h-109q-84 0 -150.5 -48t-95.5 -124l-127 45q41 117 142.5 190t230.5 73h109q113 0 208 -44t144 -128q135 172 354 172q186 0 317.5 -131.5t131.5 -317.5zM1606 571q-6 125 -97.5 212t-216.5 87t-216 -87t-95 -212h625zM844 395v66q-63 -25 -150 -25h-327q-61 0 -105.5 -44 t-44.5 -107q0 -61 44 -105.5t106 -44.5h219q106 0 182 75.5t76 184.5z" />
<glyph unicode="&#xe7;" horiz-adv-x="1038" d="M956 750l-122 -58q-39 82 -116 130t-167 48q-129 0 -221 -92t-92 -221v-108q0 -129 92 -221.5t221 -92.5q90 0 167 49t116 131l122 -59q-53 -115 -160.5 -184.5t-232.5 -71.5v-27q47 -6 78 -40.5t31 -82.5q0 -51 -36 -86.5t-87 -35.5t-87 35.5t-36 86.5h29 q0 -39 27.5 -66.5t66.5 -27.5t67.5 28t28.5 66.5t-27.5 67.5t-68.5 29h-12v53q-182 6 -308.5 137t-126.5 312v108q0 186 131.5 317.5t317.5 131.5q131 0 240.5 -68.5t164.5 -187.5z" />
<glyph unicode="&#xe8;" horiz-adv-x="1101" d="M999 557v-121h-759q4 -127 95 -214t216 -87q90 0 167 49t116 131l122 -59q-55 -117 -164.5 -186.5t-240.5 -69.5q-186 0 -317.5 131t-131.5 318v108q0 186 131.5 317.5t317.5 131.5t317 -131.5t131 -317.5zM864 571q-6 125 -97 212t-216 87t-216 -87t-95 -212h624z M696 1331l-65 -117l-189 111l66 117z" />
<glyph unicode="&#xe9;" horiz-adv-x="1101" d="M999 557v-121h-759q4 -127 95 -214t216 -87q90 0 167 49t116 131l122 -59q-55 -117 -164.5 -186.5t-240.5 -69.5q-186 0 -317.5 131t-131.5 318v108q0 186 131.5 317.5t317.5 131.5t317 -131.5t131 -317.5zM864 571q-6 125 -97 212t-216 87t-216 -87t-95 -212h624z M481 1214l-65 117l188 111l66 -117z" />
<glyph unicode="&#xea;" horiz-adv-x="1101" d="M999 557v-121h-759q4 -127 95 -214t216 -87q90 0 167 49t116 131l122 -59q-55 -117 -164.5 -186.5t-240.5 -69.5q-186 0 -317.5 131t-131.5 318v108q0 186 131.5 317.5t317.5 131.5t317 -131.5t131 -317.5zM864 571q-6 125 -97 212t-216 87t-216 -87t-95 -212h624z M406 1212l-68 121l188 109h37l189 -109l-68 -121l-139 80z" />
<glyph unicode="&#xeb;" horiz-adv-x="1101" d="M793 1223h-136v219h136v-219zM442 1223h-135v219h135v-219zM999 557v-121h-759q4 -127 95 -214t216 -87q90 0 167 49t116 131l122 -59q-55 -117 -164.5 -186.5t-240.5 -69.5q-186 0 -317.5 131t-131.5 318v108q0 186 131.5 317.5t317.5 131.5t317 -131.5t131 -317.5z M864 571q-6 125 -97 212t-216 87t-216 -87t-95 -212h624z" />
<glyph unicode="&#xec;" horiz-adv-x="483" d="M309 0h-135v1006h135v-1006zM338 1178l-250 145l68 119l250 -146z" />
<glyph unicode="&#xed;" horiz-adv-x="483" d="M309 0h-135v1006h135v-1006zM174 1214l-65 117l188 111l65 -117z" />
<glyph unicode="&#xee;" horiz-adv-x="557" d="M348 0h-135v1006h135v-1006zM139 1212l-67 121l188 109h37l188 -109l-67 -121l-139 80z" />
<glyph unicode="&#xef;" horiz-adv-x="483" d="M459 1223h-137v217h137v-217zM166 1223h-137v217h137v-217zM309 0h-135v1006h135v-1006z" />
<glyph unicode="&#xf0;" horiz-adv-x="1230" d="M1221 1118h-222v-1089h-135v127q-133 -127 -313 -127q-186 0 -317.5 131t-131.5 317v111q0 186 131.5 317t317.5 131q180 0 313 -127v209h-225v135h225v217h135v-217h222v-135zM864 477v111q0 129 -92 220t-221 91t-221 -91t-92 -220v-111q0 -129 92 -220t221 -91t221 91 t92 220z" />
<glyph unicode="&#xf1;" horiz-adv-x="1193" d="M1061 0h-135v557q0 129 -92.5 221t-221.5 92t-221 -92t-92 -221v-557h-135v1006h135v-127q131 127 313 127q186 0 317.5 -131.5t131.5 -317.5v-557zM272 1161v68q0 88 61.5 149.5t149.5 61.5q51 0 93 -22.5t65 -49.5t49.5 -49.5t52.5 -22.5q33 0 54.5 22.5t21.5 53.5v68 h135v-68q0 -88 -61.5 -149.5t-149.5 -61.5q-66 0 -113.5 36t-81.5 71t-65 35q-33 0 -54 -21.5t-21 -52.5v-68h-136z" />
<glyph unicode="&#xf2;" horiz-adv-x="1101" d="M999 557v-108q0 -186 -131 -317.5t-317 -131.5t-317.5 131t-131.5 318v108q0 186 131.5 317.5t317.5 131.5t317 -131.5t131 -317.5zM864 449v108q0 129 -92 221t-221 92t-221 -92t-92 -221v-108q0 -129 92 -221.5t221 -92.5t221 92.5t92 221.5zM696 1331l-65 -117 l-189 111l66 117z" />
<glyph unicode="&#xf3;" horiz-adv-x="1101" d="M999 557v-108q0 -186 -131 -317.5t-317 -131.5t-317.5 131t-131.5 318v108q0 186 131.5 317.5t317.5 131.5t317 -131.5t131 -317.5zM864 449v108q0 129 -92 221t-221 92t-221 -92t-92 -221v-108q0 -129 92 -221.5t221 -92.5t221 92.5t92 221.5zM481 1214l-65 117l188 111 l66 -117z" />
<glyph unicode="&#xf4;" horiz-adv-x="1101" d="M999 557v-108q0 -186 -131 -317.5t-317 -131.5t-317.5 131t-131.5 318v108q0 186 131.5 317.5t317.5 131.5t317 -131.5t131 -317.5zM864 449v108q0 129 -92 221t-221 92t-221 -92t-92 -221v-108q0 -129 92 -221.5t221 -92.5t221 92.5t92 221.5zM412 1212l-68 121l188 109 h37l189 -109l-68 -121l-139 80z" />
<glyph unicode="&#xf5;" horiz-adv-x="1101" d="M999 557v-108q0 -186 -131 -317.5t-317 -131.5t-317.5 131t-131.5 318v108q0 186 131.5 317.5t317.5 131.5t317 -131.5t131 -317.5zM864 449v108q0 129 -92 221t-221 92t-221 -92t-92 -221v-108q0 -129 92 -221.5t221 -92.5t221 92.5t92 221.5zM211 1161v68 q0 88 61.5 149.5t149.5 61.5q51 0 93 -22.5t64.5 -49.5t49 -49.5t53.5 -22.5q33 0 54.5 22.5t21.5 53.5v68h135v-68q0 -88 -61.5 -149.5t-149.5 -61.5q-66 0 -114 36t-81.5 71t-64.5 35q-33 0 -54.5 -21.5t-21.5 -52.5v-68h-135z" />
<glyph unicode="&#xf6;" horiz-adv-x="1101" d="M766 1225h-137v217h137v-217zM473 1225h-137v217h137v-217zM999 559v-110q0 -186 -131 -317.5t-317 -131.5t-317.5 131t-131.5 318v110q0 186 131.5 317.5t317.5 131.5t317 -131.5t131 -317.5zM864 449v110q0 129 -92 220t-221 91t-221 -91t-92 -220v-110 q0 -129 92 -220.5t221 -91.5t221 91.5t92 220.5z" />
<glyph unicode="&#xf7;" horiz-adv-x="1128" d="M627 788h-135v218h135v-218zM1067 436h-1006v135h1006v-135zM627 0h-135v219h135v-219z" />
<glyph unicode="&#xf8;" horiz-adv-x="1101" d="M999 557v-108q0 -186 -131 -317.5t-317 -131.5q-145 0 -262 84l-58 -84h-32l67 102q-164 133 -164 347v108q0 186 131.5 317.5t317.5 131.5q145 0 262 -84l55 84h33l-65 -101q163 -133 163 -348zM864 449v108q0 141 -104 236l-395 -594q84 -63 186 -64q129 0 221 92.5 t92 221.5zM737 809q-80 61 -186 61q-129 0 -221 -91t-92 -222v-108q0 -139 104 -234z" />
<glyph unicode="&#xf9;" horiz-adv-x="1193" d="M1030 0h-135v127q-131 -127 -313 -127q-186 0 -317.5 131t-131.5 318v557h135v-557q0 -129 92.5 -221.5t221.5 -92.5t221 91t92 220v560h135v-1006zM696 1331l-65 -117l-189 111l66 117z" />
<glyph unicode="&#xfa;" horiz-adv-x="1193" d="M1030 0h-135v127q-131 -127 -313 -127q-186 0 -317.5 131t-131.5 318v557h135v-557q0 -129 92.5 -221.5t221.5 -92.5t221 91t92 220v560h135v-1006zM481 1214l-65 117l188 111l66 -117z" />
<glyph unicode="&#xfb;" horiz-adv-x="1193" d="M1030 0h-135v127q-131 -127 -313 -127q-186 0 -317.5 131t-131.5 318v557h135v-557q0 -129 92.5 -221.5t221.5 -92.5t221 91t92 220v560h135v-1006zM442 1212l-67 121l188 109h37l188 -109l-67 -121l-139 80z" />
<glyph unicode="&#xfc;" horiz-adv-x="1193" d="M823 1223h-135v219h135v-219zM473 1223h-135v219h135v-219zM1030 0h-135v127q-131 -127 -313 -127q-186 0 -317.5 131t-131.5 318v557h135v-557q0 -129 92.5 -221.5t221.5 -92.5t221 91t92 220v560h135v-1006z" />
<glyph unicode="&#xfd;" horiz-adv-x="1015" d="M1006 1006l-629 -1438h-150l201 459l-428 979h147l355 -809l354 809h150zM481 1214l-65 117l188 111l66 -117z" />
<glyph unicode="&#xfe;" horiz-adv-x="1173" d="M1071 557v-108q0 -186 -131 -317.5t-317 -131.5q-182 0 -314 127v-545h-135v1860h135v-561q133 127 314 127q186 0 317 -132.5t131 -318.5zM936 449v108q0 131 -92 222t-221 91t-221.5 -91t-92.5 -222v-108q0 -129 92.5 -221.5t221.5 -92.5t221 92.5t92 221.5z" />
<glyph unicode="&#xff;" horiz-adv-x="1015" d="M664 1225h-138v217h138v-217zM371 1225h-138v217h138v-217zM1006 1006l-629 -1438h-150l201 459l-428 979h147l355 -809l354 809h150z" />
<glyph unicode="&#x152;" horiz-adv-x="2084" d="M1942 0h-938v158q-147 -158 -367 -158q-209 0 -356.5 147.5t-147.5 354.5v436q0 209 147.5 356.5t356.5 147.5q217 0 367 -160v160h938v-137h-803v-517h803v-137h-803v-516h803v-135zM1004 502v436q0 152 -108 259.5t-259.5 107.5t-260 -107.5t-108.5 -259.5v-436 q0 -152 108.5 -259.5t260 -107.5t259.5 107.5t108 259.5z" />
<glyph unicode="&#x153;" horiz-adv-x="1863" d="M1761 557v-123h-762q6 -125 97.5 -212t216.5 -87q90 0 166.5 49t115.5 131l123 -59q-55 -117 -164.5 -186.5t-240.5 -69.5q-117 0 -218.5 56.5t-162.5 154.5q-61 -98 -162.5 -154.5t-218.5 -56.5q-186 0 -317.5 131t-131.5 318v108q0 186 131.5 317.5t317.5 131.5 q117 0 218 -56.5t163 -154.5q61 98 162.5 154.5t218.5 56.5q186 0 317 -131.5t131 -317.5zM1626 571q-6 125 -97 212t-216 87t-216 -87t-98 -212h627zM864 449v108q0 129 -92 221t-221 92t-221 -92t-92 -221v-108q0 -129 92 -221.5t221 -92.5t221 92.5t92 221.5z" />
<glyph unicode="&#x178;" horiz-adv-x="1142" d="M821 1573h-137v219h137v-219zM471 1573h-137v219h137v-219zM1133 1442l-494 -742v-700h-135v700l-494 742h164l397 -598l398 598h164z" />
<glyph unicode="&#x2c6;" horiz-adv-x="516" d="M119 1212l-68 121l189 109h36l189 -109l-68 -121l-139 80z" />
<glyph unicode="&#x2dc;" horiz-adv-x="907" d="M113 1161v68q0 88 61.5 149.5t149.5 61.5q51 0 93 -22.5t64.5 -49.5t49 -49.5t53.5 -22.5q33 0 54 22.5t21 53.5v68h136v-68q0 -88 -61.5 -149.5t-149.5 -61.5q-66 0 -114 36t-82 71t-64 35q-33 0 -54.5 -21.5t-21.5 -52.5v-68h-135z" />
<glyph unicode="&#x2000;" horiz-adv-x="954" />
<glyph unicode="&#x2001;" horiz-adv-x="1908" />
<glyph unicode="&#x2002;" horiz-adv-x="954" />
<glyph unicode="&#x2003;" horiz-adv-x="1908" />
<glyph unicode="&#x2004;" horiz-adv-x="634" />
<glyph unicode="&#x2005;" horiz-adv-x="477" />
<glyph unicode="&#x2006;" horiz-adv-x="317" />
<glyph unicode="&#x2007;" horiz-adv-x="317" />
<glyph unicode="&#x2008;" horiz-adv-x="237" />
<glyph unicode="&#x2009;" horiz-adv-x="380" />
<glyph unicode="&#x200a;" horiz-adv-x="104" />
<glyph unicode="&#x2010;" horiz-adv-x="722" d="M610 436h-497v135h497v-135z" />
<glyph unicode="&#x2011;" horiz-adv-x="722" d="M610 436h-497v135h497v-135z" />
<glyph unicode="&#x2012;" horiz-adv-x="722" d="M610 436h-497v135h497v-135z" />
<glyph unicode="&#x2013;" horiz-adv-x="1228" d="M1116 436h-1003v135h1003v-135z" />
<glyph unicode="&#x2014;" horiz-adv-x="2101" d="M1989 438h-1876v135h1876v-135z" />
<glyph unicode="&#x2018;" horiz-adv-x="360" d="M248 1006h-135v219q0 143 135 217v-82q-68 -43 -68 -135h68v-219z" />
<glyph unicode="&#x2019;" horiz-adv-x="360" d="M248 1442v-217q0 -70 -37 -128.5t-98 -90.5v84q68 41 67 135h-67v217h135z" />
<glyph unicode="&#x201a;" horiz-adv-x="401" d="M268 217v-217q0 -70 -36.5 -127t-98.5 -90v82q68 41 68 135h-68v217h135z" />
<glyph unicode="&#x201c;" horiz-adv-x="630" d="M518 1006h-135v219q0 143 135 217v-82q-68 -43 -67 -135h67v-219zM248 1006h-135v219q0 143 135 217v-82q-68 -43 -68 -135h68v-219z" />
<glyph unicode="&#x201d;" horiz-adv-x="630" d="M518 1442v-217q0 -70 -37 -128.5t-98 -90.5v84q68 41 68 135h-68v217h135zM248 1442v-217q0 -70 -37 -128.5t-98 -90.5v84q68 41 67 135h-67v217h135z" />
<glyph unicode="&#x201e;" horiz-adv-x="630" d="M518 215v-217q0 -70 -37 -128t-98 -91v84q68 39 68 135h-68v217h135zM248 215v-217q0 -70 -37 -128t-98 -91v84q68 39 67 135h-67v217h135z" />
<glyph unicode="&#x2022;" horiz-adv-x="882" d="M791 662v-17q0 -141 -100.5 -240.5t-241.5 -99.5h-15q-141 0 -241.5 99.5t-100.5 240.5v17q0 141 100.5 241.5t241.5 100.5h15q141 0 241.5 -100.5t100.5 -241.5z" />
<glyph unicode="&#x2026;" horiz-adv-x="954" d="M821 0h-135v219h135v-219zM545 0h-135v219h135v-219zM268 0h-135v219h135v-219z" />
<glyph unicode="&#x202f;" horiz-adv-x="380" />
<glyph unicode="&#x2039;" horiz-adv-x="811" d="M698 0h-182l-403 459v90l403 457h182l-444 -502z" />
<glyph unicode="&#x203a;" horiz-adv-x="811" d="M698 459l-405 -459h-180l442 504l-442 502h180l405 -457v-90z" />
<glyph unicode="&#x205f;" horiz-adv-x="477" />
<glyph unicode="&#x20ac;" horiz-adv-x="1208" d="M1178 1192l-117 -68q-49 84 -134 134.5t-186 50.5q-133 0 -234 -86t-126 -215h547v-136h-553v-299h553v-135h-547q25 -129 126 -215t234 -86q100 0 185.5 50.5t134.5 134.5l117 -68q-66 -115 -182.5 -183.5t-254.5 -68.5q-188 0 -330.5 125t-166.5 311h-213v135h209v299 h-209v136h213q25 186 167 311t330 125q139 0 255 -68.5t182 -183.5z" />
<glyph unicode="&#x2122;" horiz-adv-x="862" d="M811 1008l-41 -2v317l-139 -317h-27l-139 317v-317h-41v434h37l157 -363l156 363h37v-432zM352 1399h-129v-393h-41v393h-131v41h301v-41z" />
<glyph unicode="&#xe000;" horiz-adv-x="1004" d="M0 1005h1005v-1005h-1005v1005z" />
<glyph unicode="&#xfb01;" horiz-adv-x="1187" d="M1014 0h-135v868h-480v-868h-135v868h-254v136h254v151q0 119 83 203t202 84h104v-135h-104q-61 0 -105.5 -44t-44.5 -108v-151h480v2h135v-1006zM1014 1223h-135v219h135v-219z" />
<glyph unicode="&#xfb02;" horiz-adv-x="1187" d="M653 868h-254v-868h-135v868h-254v136h254v149q0 119 83 203t202 84h465v-1440h-135v1305h-330q-61 0 -105.5 -44t-44.5 -108v-149h254v-136z" />
<glyph unicode="&#xfb03;" horiz-adv-x="1871" d="M1708 1223h-135v219h135v-219zM1708 0h-135v1006h135v-1006zM1358 868h-254v-870h-135v870h-254v136h254v149q0 119 83 203t202 84h104v-135h-104q-61 0 -105.5 -44t-44.5 -108v-149h254v-136zM653 868h-254v-870h-135v870h-254v136h254v149q0 119 83 203t202 84h104 v-135h-104q-61 0 -105.5 -44t-44.5 -108v-149h254v-136z" />
<glyph unicode="&#xfb04;" horiz-adv-x="1871" d="M1708 0h-135v1442h135v-1442zM1358 868h-254v-870h-135v870h-254v136h254v149q0 119 83 203t202 84h104v-135h-104q-61 0 -105.5 -44t-44.5 -108v-149h254v-136zM653 868h-254v-870h-135v870h-254v136h254v149q0 119 83 203t202 84h104v-135h-104q-61 0 -105.5 -44 t-44.5 -108v-149h254v-136z" />
<glyph horiz-adv-x="0" />
</font>
</defs>
</svg>
